<?xml version="1.0" encoding="UTF-8" standalone="no"?>
<svg
   width="48"
   height="48"
   version="1.1"
   id="svg257"
   sodipodi:docname="icon.svg"
   inkscape:version="1.2.2 (732a01da63, 2022-12-09)"
   xmlns:inkscape="http://www.inkscape.org/namespaces/inkscape"
   xmlns:sodipodi="http://sodipodi.sourceforge.net/DTD/sodipodi-0.dtd"
   xmlns="http://www.w3.org/2000/svg"
   xmlns:svg="http://www.w3.org/2000/svg">
  <defs
     id="defs261" />
  <sodipodi:namedview
     id="namedview259"
     pagecolor="#ffffff"
     bordercolor="#000000"
     borderopacity="0.25"
     inkscape:showpageshadow="2"
     inkscape:pageopacity="0.0"
     inkscape:pagecheckerboard="0"
     inkscape:deskcolor="#d1d1d1"
     showgrid="false"
     inkscape:zoom="13.5"
     inkscape:cx="24.962963"
     inkscape:cy="26.703704"
     inkscape:window-width="1920"
     inkscape:window-height="1051"
     inkscape:window-x="-9"
     inkscape:window-y="-9"
     inkscape:window-maximized="1"
     inkscape:current-layer="svg257" />
  <path
     id="path255"
     d="M 18,9 A 3,3 0 0 0 15.878906,9.8789064 L 3.8789064,21.878906 a 3,3 0 0 0 0,4.242188 L 15.878906,38.121093 A 3,3 0 0 0 18,39 h 24 a 3,3 0 0 0 3,-3 V 12 A 3,3 0 0 0 42,9 Z m 4.822266,3.416016 a 1.3016159,1.3016159 0 0 1 1.048828,0.445312 l 3.146484,3.474609 0.03516,-0.0059 0.09375,-0.01173 h 0.02343 0.02343 0.04102 l 0.05859,-0.0058 0.04102,0.0058 0.04687,0.0059 0.05859,0.0058 0.01758,0.0058 h 0.02343 l 0.105468,0.02343 a 5.2064637,5.2064637 0 0 1 6.398438,-3.65039 5.2064637,5.2064637 0 0 1 3.714843,6.140625 l -0.06444,0.251952 a 1.3016159,1.3016159 0 0 1 0.503907,0.263673 l 4.470702,-1.394531 a 1.3018664,1.3018664 0 1 1 0.779298,2.484375 l -4.447266,1.394531 a 9.3716346,9.3716346 0 0 1 -0.16407,2.958984 l 3.76758,1.025391 a 1.3027559,1.3027559 0 0 1 -0.685533,2.513709 l -3.767577,-1.02539 -0.339846,1.253906 a 7.8096957,7.8096957 0 0 1 -0.767577,1.845703 l 2.847657,2.958984 a 1.3033162,1.3033162 0 1 1 -1.880859,1.804689 l -2.64258,-2.742189 a 7.8096957,7.8096957 0 0 1 -5.865234,1.851564 l 2.027343,-7.429689 a 1.3027395,1.3027395 0 0 0 -2.513671,-0.685547 l -2.027344,7.429688 a 7.8096957,7.8096957 0 0 1 -4.107421,-4.576172 l -3.673829,1.02539 a 1.3023272,1.3023272 0 0 1 -0.697265,-2.507812 l 3.949219,-1.101562 a 7.8096957,7.8096957 0 0 1 0.28125,-1.980469 l 0.339843,-1.259766 -3.767578,-1.02539 a 1.3027396,1.3027396 0 0 1 0.685547,-2.513672 l 3.767578,1.03125 0.02343,-0.07031 a 9.1113114,9.1113114 0 0 1 1.335945,-2.566408 l -3.123047,-3.457031 a 1.3016159,1.3016159 0 0 1 0.878907,-2.191406 z m 9.662109,2.71289 a 2.6032319,2.6032319 0 0 0 -2.384766,1.916016 l 5.021484,1.371094 a 2.6032319,2.6032319 0 0 0 -1.822266,-3.199219 2.6032319,2.6032319 0 0 0 -0.814452,-0.08789 z M 15,21 a 3,3 0 0 1 0,6 3,3 0 0 1 0,-6 z"
     style="fill:#fc7f7f;fill-opacity:1;stroke-width:3" />
</svg>
