<?xml version="1.0" encoding="UTF-8" standalone="no"?>
<svg
   width="16"
   height="16"
   version="1.1"
   id="svg257"
   sodipodi:docname="DebugLabel3D.svg"
   inkscape:version="1.2.2 (732a01da63, 2022-12-09)"
   xmlns:inkscape="http://www.inkscape.org/namespaces/inkscape"
   xmlns:sodipodi="http://sodipodi.sourceforge.net/DTD/sodipodi-0.dtd"
   xmlns="http://www.w3.org/2000/svg"
   xmlns:svg="http://www.w3.org/2000/svg">
  <defs
     id="defs261" />
  <sodipodi:namedview
     id="namedview259"
     pagecolor="#ffffff"
     bordercolor="#000000"
     borderopacity="0.25"
     inkscape:showpageshadow="2"
     inkscape:pageopacity="0.0"
     inkscape:pagecheckerboard="0"
     inkscape:deskcolor="#d1d1d1"
     showgrid="false"
     inkscape:zoom="38.183766"
     inkscape:cx="7.1758244"
     inkscape:cy="8.2888628"
     inkscape:window-width="1920"
     inkscape:window-height="1051"
     inkscape:window-x="-9"
     inkscape:window-y="-9"
     inkscape:window-maximized="1"
     inkscape:current-layer="svg257" />
  <path
     id="path255"
     d="M 6 3 A 1 1 0 0 0 5.2929688 3.2929688 L 1.2929688 7.2929688 A 1 1 0 0 0 1.2929688 8.7070312 L 5.2929688 12.707031 A 1 1 0 0 0 6 13 L 14 13 A 1 1 0 0 0 15 12 L 15 4 A 1 1 0 0 0 14 3 L 6 3 z M 7.6074219 4.1386719 A 0.43387198 0.43387198 0 0 1 7.9570312 4.2871094 L 9.0058594 5.4453125 L 9.0175781 5.4433594 L 9.0488281 5.4394531 L 9.0566406 5.4394531 L 9.0644531 5.4394531 L 9.078125 5.4394531 L 9.0976562 5.4375 L 9.1113281 5.4394531 L 9.1269531 5.4414062 L 9.1464844 5.4433594 L 9.1523438 5.4453125 L 9.1601562 5.4453125 L 9.1953125 5.453125 A 1.7354879 1.7354879 0 0 1 11.328125 4.2363281 A 1.7354879 1.7354879 0 0 1 12.566406 6.2832031 L 12.544922 6.3671875 A 0.43387198 0.43387198 0 0 1 12.712891 6.4550781 L 14.203125 5.9902344 A 0.43395541 0.43395541 0 1 1 14.462891 6.8183594 L 12.980469 7.2832031 A 3.1238782 3.1238782 0 0 1 12.925781 8.2695312 L 14.181641 8.6113281 A 0.4342465 0.4342465 0 0 1 13.953125 9.4492188 L 12.697266 9.1074219 L 12.583984 9.5253906 A 2.6032319 2.6032319 0 0 1 12.328125 10.140625 L 13.277344 11.126953 A 0.43443862 0.43443862 0 1 1 12.650391 11.728516 L 11.769531 10.814453 A 2.6032319 2.6032319 0 0 1 9.8144531 11.431641 L 10.490234 8.9550781 A 0.4342465 0.4342465 0 0 0 9.6523438 8.7265625 L 8.9765625 11.203125 A 2.6032319 2.6032319 0 0 1 7.6074219 9.6777344 L 6.3828125 10.019531 A 0.43410908 0.43410908 0 0 1 6.1503906 9.1835938 L 7.4667969 8.8164062 A 2.6032319 2.6032319 0 0 1 7.5605469 8.15625 L 7.6738281 7.7363281 L 6.4179688 7.3945312 A 0.4342465 0.4342465 0 0 1 6.6464844 6.5566406 L 7.9023438 6.9003906 L 7.9101562 6.8769531 A 3.0371038 3.0371038 0 0 1 8.3554688 6.0214844 L 7.3144531 4.8691406 A 0.43387198 0.43387198 0 0 1 7.6074219 4.1386719 z M 10.828125 5.0429688 A 0.86774395 0.86774395 0 0 0 10.033203 5.6816406 L 11.707031 6.1386719 A 0.86774395 0.86774395 0 0 0 11.099609 5.0722656 A 0.86774395 0.86774395 0 0 0 10.828125 5.0429688 z M 5 7 A 1 1 0 0 1 5 9 A 1 1 0 0 1 5 7 z "
     style="fill:#fc7f7f;fill-opacity:1" />
</svg>
